<svg xmlns="http://www.w3.org/2000/svg" xmlns:xlink="http://www.w3.org/1999/xlink" width="500" zoomAndPan="magnify" viewBox="0 0 375 149.999998" height="200" preserveAspectRatio="xMidYMid meet" version="1.0"><defs><g/><clipPath id="e750528d0c"><rect x="0" width="375" y="0" height="150"/></clipPath><clipPath id="44b4ce6083"><path d="M 60.429688 50.414062 L 110.679688 50.414062 L 110.679688 101.414062 L 60.429688 101.414062 Z M 60.429688 50.414062 " clip-rule="nonzero"/></clipPath><clipPath id="b7795c709d"><path d="M 63.089844 86.6875 L 78.433594 86.6875 L 78.433594 100.09375 L 63.089844 100.09375 Z M 63.089844 86.6875 " clip-rule="nonzero"/></clipPath><clipPath id="19cd230817"><path d="M 70.75 86.6875 L 78.410156 100.09375 L 63.089844 100.09375 Z M 70.75 86.6875 " clip-rule="nonzero"/></clipPath><clipPath id="caf257ffd7"><path d="M 0.0898438 0.6875 L 15.433594 0.6875 L 15.433594 14.09375 L 0.0898438 14.09375 Z M 0.0898438 0.6875 " clip-rule="nonzero"/></clipPath><clipPath id="8545b1557d"><path d="M 7.75 0.6875 L 15.410156 14.09375 L 0.0898438 14.09375 Z M 7.75 0.6875 " clip-rule="nonzero"/></clipPath><clipPath id="37cb78fc36"><rect x="0" width="16" y="0" height="15"/></clipPath><clipPath id="2ef01dd7f7"><path d="M 92.457031 86.6875 L 108.429688 86.6875 L 108.429688 100.09375 L 92.457031 100.09375 Z M 92.457031 86.6875 " clip-rule="nonzero"/></clipPath><clipPath id="f9467402f0"><path d="M 100.417969 86.6875 L 108.378906 100.09375 L 92.457031 100.09375 Z M 100.417969 86.6875 " clip-rule="nonzero"/></clipPath><clipPath id="9700d54c58"><path d="M 0.457031 0.6875 L 16.429688 0.6875 L 16.429688 14.09375 L 0.457031 14.09375 Z M 0.457031 0.6875 " clip-rule="nonzero"/></clipPath><clipPath id="c166eb318d"><path d="M 8.417969 0.6875 L 16.378906 14.09375 L 0.457031 14.09375 Z M 8.417969 0.6875 " clip-rule="nonzero"/></clipPath><clipPath id="c90c1658fb"><rect x="0" width="17" y="0" height="15"/></clipPath><clipPath id="4aff0abb94"><path d="M 86 86 L 101 86 L 101 101 L 86 101 Z M 86 86 " clip-rule="nonzero"/></clipPath><clipPath id="219ffff172"><path d="M 99.894531 101.074219 L 86.054688 100.558594 L 86.574219 86.667969 L 100.410156 87.183594 Z M 99.894531 101.074219 " clip-rule="nonzero"/></clipPath><clipPath id="60e99e2449"><path d="M 92.972656 100.816406 L 86.574219 86.667969 L 100.410156 87.183594 Z M 92.972656 100.816406 " clip-rule="nonzero"/></clipPath><clipPath id="f19ac319e7"><path d="M 0.398438 0.640625 L 14.558594 0.640625 L 14.558594 15 L 0.398438 15 Z M 0.398438 0.640625 " clip-rule="nonzero"/></clipPath><clipPath id="c4599a8c5b"><path d="M 13.894531 15.074219 L 0.0546875 14.558594 L 0.574219 0.667969 L 14.410156 1.183594 Z M 13.894531 15.074219 " clip-rule="nonzero"/></clipPath><clipPath id="d1a8ae186b"><path d="M 6.972656 14.816406 L 0.574219 0.667969 L 14.410156 1.183594 Z M 6.972656 14.816406 " clip-rule="nonzero"/></clipPath><clipPath id="0208a00240"><rect x="0" width="15" y="0" height="15"/></clipPath><clipPath id="ed5410d77a"><path d="M 70 86 L 85 86 L 85 100 L 70 100 Z M 70 86 " clip-rule="nonzero"/></clipPath><clipPath id="124c8e77d7"><path d="M 84.882812 99.539062 L 70.671875 99.875 L 70.367188 86.929688 L 84.574219 86.59375 Z M 84.882812 99.539062 " clip-rule="nonzero"/></clipPath><clipPath id="e3d1f09337"><path d="M 77.792969 99.707031 L 70.398438 86.929688 L 84.574219 86.59375 Z M 77.792969 99.707031 " clip-rule="nonzero"/></clipPath><clipPath id="f0e5ee4d79"><path d="M 0.320312 0.398438 L 14.71875 0.398438 L 14.71875 13.839844 L 0.320312 13.839844 Z M 0.320312 0.398438 " clip-rule="nonzero"/></clipPath><clipPath id="3e90990238"><path d="M 14.882812 13.539062 L 0.671875 13.875 L 0.367188 0.929688 L 14.574219 0.59375 Z M 14.882812 13.539062 " clip-rule="nonzero"/></clipPath><clipPath id="e9f4a9f91f"><path d="M 7.792969 13.707031 L 0.398438 0.929688 L 14.574219 0.59375 Z M 7.792969 13.707031 " clip-rule="nonzero"/></clipPath><clipPath id="a709db6595"><rect x="0" width="15" y="0" height="14"/></clipPath><clipPath id="af4f13211f"><path d="M 70.9375 74.558594 L 84.34375 74.558594 L 84.34375 88 L 70.9375 88 Z M 70.9375 74.558594 " clip-rule="nonzero"/></clipPath><clipPath id="2e622fc7ba"><path d="M 77.640625 74.558594 L 84.34375 87.964844 L 70.9375 87.964844 Z M 77.640625 74.558594 " clip-rule="nonzero"/></clipPath><clipPath id="1472c14633"><path d="M 0.9375 0.558594 L 14.34375 0.558594 L 14.34375 14 L 0.9375 14 Z M 0.9375 0.558594 " clip-rule="nonzero"/></clipPath><clipPath id="6e3f1188e8"><path d="M 7.640625 0.558594 L 14.34375 13.964844 L 0.9375 13.964844 Z M 7.640625 0.558594 " clip-rule="nonzero"/></clipPath><clipPath id="bbd6e512c9"><rect x="0" width="15" y="0" height="14"/></clipPath><clipPath id="55998c8819"><path d="M 86.703125 74.558594 L 100.109375 74.558594 L 100.109375 88 L 86.703125 88 Z M 86.703125 74.558594 " clip-rule="nonzero"/></clipPath><clipPath id="d7df46bb9b"><path d="M 93.40625 74.558594 L 100.109375 87.964844 L 86.703125 87.964844 Z M 93.40625 74.558594 " clip-rule="nonzero"/></clipPath><clipPath id="8e619c6e0e"><path d="M 0.703125 0.558594 L 14.109375 0.558594 L 14.109375 14 L 0.703125 14 Z M 0.703125 0.558594 " clip-rule="nonzero"/></clipPath><clipPath id="161ada6348"><path d="M 7.40625 0.558594 L 14.109375 13.964844 L 0.703125 13.964844 Z M 7.40625 0.558594 " clip-rule="nonzero"/></clipPath><clipPath id="1af5b0c705"><rect x="0" width="15" y="0" height="14"/></clipPath><clipPath id="b05daa5378"><path d="M 82.996094 74.535156 L 93.402344 74.535156 L 93.402344 87.953125 L 82.996094 87.953125 Z M 82.996094 74.535156 " clip-rule="nonzero"/></clipPath><clipPath id="b15131ebf8"><path d="M 88.199219 87.953125 L 82.996094 74.546875 L 93.402344 74.546875 Z M 88.199219 87.953125 " clip-rule="nonzero"/></clipPath><clipPath id="d967dd4672"><path d="M 0.996094 0.535156 L 11.402344 0.535156 L 11.402344 13.953125 L 0.996094 13.953125 Z M 0.996094 0.535156 " clip-rule="nonzero"/></clipPath><clipPath id="c49e8f9249"><path d="M 6.199219 13.953125 L 0.996094 0.546875 L 11.402344 0.546875 Z M 6.199219 13.953125 " clip-rule="nonzero"/></clipPath><clipPath id="43be2790ab"><rect x="0" width="12" y="0" height="14"/></clipPath><clipPath id="0708eb3cff"><path d="M 77.789062 74.535156 L 88.199219 74.535156 L 88.199219 87.953125 L 77.789062 87.953125 Z M 77.789062 74.535156 " clip-rule="nonzero"/></clipPath><clipPath id="f746a87caa"><path d="M 82.996094 87.953125 L 77.789062 74.546875 L 88.199219 74.546875 Z M 82.996094 87.953125 " clip-rule="nonzero"/></clipPath><clipPath id="cc3c265c79"><path d="M 0.789062 0.535156 L 11.199219 0.535156 L 11.199219 13.953125 L 0.789062 13.953125 Z M 0.789062 0.535156 " clip-rule="nonzero"/></clipPath><clipPath id="553edb25c2"><path d="M 5.996094 13.953125 L 0.789062 0.546875 L 11.199219 0.546875 Z M 5.996094 13.953125 " clip-rule="nonzero"/></clipPath><clipPath id="32e296c7e4"><rect x="0" width="12" y="0" height="14"/></clipPath><clipPath id="433a886fc1"><path d="M 78.019531 58.082031 L 93.339844 58.082031 L 93.339844 75 L 78.019531 75 Z M 78.019531 58.082031 " clip-rule="nonzero"/></clipPath><clipPath id="35f36175d4"><path d="M 85.679688 58.082031 L 93.339844 75 L 78.019531 75 Z M 85.679688 58.082031 " clip-rule="nonzero"/></clipPath><clipPath id="db7dcc2d36"><path d="M 0.0195312 0.0820312 L 15.339844 0.0820312 L 15.339844 17 L 0.0195312 17 Z M 0.0195312 0.0820312 " clip-rule="nonzero"/></clipPath><clipPath id="1766760f42"><path d="M 7.679688 0.0820312 L 15.339844 17 L 0.0195312 17 Z M 7.679688 0.0820312 " clip-rule="nonzero"/></clipPath><clipPath id="e94aa108be"><rect x="0" width="16" y="0" height="17"/></clipPath></defs><g transform="matrix(1, 0, 0, 1, 0, -0.000000000000007527)"><g clip-path="url(#e750528d0c)"><g fill="#38b6ff" fill-opacity="1"><g transform="translate(0.000003125, 99.885892)"><g><path d="M 33.875 -60.578125 C 38.082031 -60.578125 41.863281 -59.9375 45.21875 -58.65625 C 48.582031 -57.382812 51.316406 -55.863281 53.421875 -54.09375 C 54.210938 -53.414062 54.832031 -52.648438 55.28125 -51.796875 C 55.738281 -50.941406 55.96875 -50.003906 55.96875 -48.984375 C 55.96875 -47.046875 55.398438 -45.503906 54.265625 -44.359375 C 53.128906 -43.222656 51.476562 -42.65625 49.3125 -42.65625 C 48.007812 -42.65625 46.929688 -42.941406 46.078125 -43.515625 C 44.203125 -44.878906 42.296875 -45.929688 40.359375 -46.671875 C 38.421875 -47.410156 36.257812 -47.78125 33.875 -47.78125 C 28.863281 -47.78125 24.863281 -46.203125 21.875 -43.046875 C 18.894531 -39.890625 17.40625 -35.492188 17.40625 -29.859375 C 17.40625 -24.234375 18.894531 -19.84375 21.875 -16.6875 C 24.863281 -13.53125 28.863281 -11.953125 33.875 -11.953125 C 36.257812 -11.953125 38.421875 -12.320312 40.359375 -13.0625 C 42.296875 -13.800781 44.203125 -14.851562 46.078125 -16.21875 C 46.929688 -16.78125 48.007812 -17.0625 49.3125 -17.0625 C 51.476562 -17.0625 53.128906 -16.503906 54.265625 -15.390625 C 55.398438 -14.285156 55.96875 -12.738281 55.96875 -10.75 C 55.96875 -9.726562 55.738281 -8.789062 55.28125 -7.9375 C 54.832031 -7.082031 54.210938 -6.3125 53.421875 -5.625 C 51.316406 -3.863281 48.582031 -2.34375 45.21875 -1.0625 C 41.863281 0.21875 38.082031 0.859375 33.875 0.859375 C 27.675781 0.859375 22.257812 -0.390625 17.625 -2.890625 C 12.988281 -5.398438 9.375 -8.941406 6.78125 -13.515625 C 4.195312 -18.097656 2.90625 -23.546875 2.90625 -29.859375 C 2.90625 -36.179688 4.195312 -41.628906 6.78125 -46.203125 C 9.375 -50.785156 12.988281 -54.328125 17.625 -56.828125 C 22.257812 -59.328125 27.675781 -60.578125 33.875 -60.578125 Z M 33.875 -60.578125 "/></g></g></g><g fill="#38b6ff" fill-opacity="1"><g transform="translate(61.603705, 99.885892)"><g/></g></g><g fill="#38b6ff" fill-opacity="1"><g transform="translate(86.85932, 99.885892)"><g/></g></g><g fill="#38b6ff" fill-opacity="1"><g transform="translate(112.125406, 99.885892)"><g><path d="M 10.40625 -43.515625 C 12.34375 -43.515625 13.804688 -42.957031 14.796875 -41.84375 C 15.796875 -40.738281 16.296875 -39.25 16.296875 -37.375 L 16.296875 -36.609375 C 17.378906 -38.765625 18.875 -40.453125 20.78125 -41.671875 C 22.6875 -42.898438 25.03125 -43.515625 27.8125 -43.515625 C 33.5625 -43.515625 37.429688 -41.382812 39.421875 -37.125 C 40.554688 -39.113281 42.0625 -40.675781 43.9375 -41.8125 C 45.820312 -42.945312 48.070312 -43.515625 50.6875 -43.515625 C 54.894531 -43.515625 58.109375 -42.390625 60.328125 -40.140625 C 62.546875 -37.898438 63.65625 -34.585938 63.65625 -30.203125 L 63.65625 -6.140625 C 63.65625 -4.097656 63.082031 -2.421875 61.9375 -1.109375 C 60.800781 0.203125 59.15625 0.859375 57 0.859375 C 54.832031 0.859375 53.207031 0.203125 52.125 -1.109375 C 51.050781 -2.421875 50.515625 -4.097656 50.515625 -6.140625 L 50.515625 -26.703125 C 50.515625 -28.359375 50.054688 -29.640625 49.140625 -30.546875 C 48.234375 -31.453125 47.039062 -31.90625 45.5625 -31.90625 C 44.082031 -31.90625 42.914062 -31.453125 42.0625 -30.546875 C 41.207031 -29.640625 40.78125 -28.359375 40.78125 -26.703125 L 40.78125 -6.140625 C 40.78125 -4.097656 40.222656 -2.421875 39.109375 -1.109375 C 38.003906 0.203125 36.375 0.859375 34.21875 0.859375 C 32.050781 0.859375 30.398438 0.203125 29.265625 -1.109375 C 28.128906 -2.421875 27.5625 -4.097656 27.5625 -6.140625 L 27.5625 -26.703125 C 27.5625 -28.359375 27.117188 -29.640625 26.234375 -30.546875 C 25.359375 -31.453125 24.179688 -31.90625 22.703125 -31.90625 C 21.222656 -31.90625 20.039062 -31.453125 19.15625 -30.546875 C 18.269531 -29.640625 17.828125 -28.359375 17.828125 -26.703125 L 17.828125 -6.140625 C 17.828125 -4.097656 17.257812 -2.421875 16.125 -1.109375 C 14.988281 0.203125 13.335938 0.859375 11.171875 0.859375 C 9.015625 0.859375 7.378906 0.203125 6.265625 -1.109375 C 5.160156 -2.421875 4.609375 -4.097656 4.609375 -6.140625 L 4.609375 -37.375 C 4.609375 -39.25 5.09375 -40.738281 6.0625 -41.84375 C 7.03125 -42.957031 8.476562 -43.515625 10.40625 -43.515625 Z M 10.40625 -43.515625 "/></g></g></g><g fill="#38b6ff" fill-opacity="1"><g transform="translate(182.943521, 99.885892)"><g><path d="M 10.40625 -43.515625 C 12.34375 -43.515625 13.804688 -42.957031 14.796875 -41.84375 C 15.796875 -40.738281 16.296875 -39.25 16.296875 -37.375 L 16.296875 -36.515625 C 19.203125 -41.179688 23.640625 -43.515625 29.609375 -43.515625 C 35.066406 -43.515625 39.257812 -41.566406 42.1875 -37.671875 C 45.125 -33.773438 46.59375 -28.328125 46.59375 -21.328125 C 46.59375 -14.335938 45.125 -8.890625 42.1875 -4.984375 C 39.257812 -1.085938 35.066406 0.859375 29.609375 0.859375 C 24.597656 0.859375 20.671875 -0.789062 17.828125 -4.09375 L 17.828125 10.921875 C 17.828125 12.972656 17.257812 14.648438 16.125 15.953125 C 14.988281 17.265625 13.335938 17.921875 11.171875 17.921875 C 9.015625 17.921875 7.378906 17.265625 6.265625 15.953125 C 5.160156 14.648438 4.609375 12.972656 4.609375 10.921875 L 4.609375 -37.375 C 4.609375 -39.25 5.09375 -40.738281 6.0625 -41.84375 C 7.03125 -42.957031 8.476562 -43.515625 10.40625 -43.515625 Z M 17.828125 -21.328125 C 17.828125 -14.273438 20.414062 -10.75 25.59375 -10.75 C 30.71875 -10.75 33.28125 -14.273438 33.28125 -21.328125 C 33.28125 -28.378906 30.71875 -31.90625 25.59375 -31.90625 C 20.414062 -31.90625 17.828125 -28.378906 17.828125 -21.328125 Z M 17.828125 -21.328125 "/></g></g></g><g fill="#38b6ff" fill-opacity="1"><g transform="translate(235.161212, 99.885892)"><g><path d="M 11.171875 -60.578125 C 13.335938 -60.578125 14.988281 -59.953125 16.125 -58.703125 C 17.257812 -57.453125 17.828125 -55.75 17.828125 -53.59375 L 17.828125 -6.140625 C 17.828125 -4.097656 17.257812 -2.421875 16.125 -1.109375 C 14.988281 0.203125 13.335938 0.859375 11.171875 0.859375 C 9.015625 0.859375 7.378906 0.203125 6.265625 -1.109375 C 5.160156 -2.421875 4.609375 -4.097656 4.609375 -6.140625 L 4.609375 -53.59375 C 4.609375 -55.75 5.160156 -57.453125 6.265625 -58.703125 C 7.378906 -59.953125 9.015625 -60.578125 11.171875 -60.578125 Z M 11.171875 -60.578125 "/></g></g></g><g fill="#38b6ff" fill-opacity="1"><g transform="translate(260.075532, 99.885892)"><g><path d="M 11.171875 -63.828125 C 13.390625 -63.828125 15.238281 -63.097656 16.71875 -61.640625 C 18.195312 -60.191406 18.9375 -58.359375 18.9375 -56.140625 C 18.9375 -53.921875 18.195312 -52.085938 16.71875 -50.640625 C 15.238281 -49.191406 13.390625 -48.46875 11.171875 -48.46875 C 8.953125 -48.46875 7.128906 -49.191406 5.703125 -50.640625 C 4.285156 -52.085938 3.578125 -53.921875 3.578125 -56.140625 C 3.578125 -58.359375 4.285156 -60.191406 5.703125 -61.640625 C 7.128906 -63.097656 8.953125 -63.828125 11.171875 -63.828125 Z M 11.171875 -43.515625 C 13.335938 -43.515625 14.972656 -42.890625 16.078125 -41.640625 C 17.191406 -40.390625 17.75 -38.679688 17.75 -36.515625 L 17.75 -6.140625 C 17.75 -4.097656 17.191406 -2.421875 16.078125 -1.109375 C 14.972656 0.203125 13.335938 0.859375 11.171875 0.859375 C 9.015625 0.859375 7.378906 0.203125 6.265625 -1.109375 C 5.160156 -2.421875 4.609375 -4.097656 4.609375 -6.140625 L 4.609375 -36.515625 C 4.609375 -38.679688 5.160156 -40.390625 6.265625 -41.640625 C 7.378906 -42.890625 9.015625 -43.515625 11.171875 -43.515625 Z M 11.171875 -43.515625 "/></g></g></g><g fill="#38b6ff" fill-opacity="1"><g transform="translate(284.307264, 99.885892)"><g><path d="M 23.890625 -6.140625 C 23.890625 -4.097656 23.320312 -2.421875 22.1875 -1.109375 C 21.050781 0.203125 19.398438 0.859375 17.234375 0.859375 C 15.078125 0.859375 13.441406 0.203125 12.328125 -1.109375 C 11.222656 -2.421875 10.671875 -4.097656 10.671875 -6.140625 L 10.671875 -32.59375 L 6.484375 -32.59375 C 4.890625 -32.59375 3.625 -33.003906 2.6875 -33.828125 C 1.75 -34.648438 1.28125 -35.890625 1.28125 -37.546875 C 1.28125 -39.191406 1.75 -40.453125 2.6875 -41.328125 C 3.625 -42.210938 4.890625 -42.65625 6.484375 -42.65625 L 10.671875 -42.65625 L 10.671875 -43.171875 C 10.671875 -48.691406 12.132812 -52.972656 15.0625 -56.015625 C 17.988281 -59.054688 22.210938 -60.578125 27.734375 -60.578125 C 30.628906 -60.578125 33.15625 -60.007812 35.3125 -58.875 C 37.476562 -57.738281 39.273438 -56.429688 40.703125 -54.953125 C 41.554688 -54.097656 41.984375 -53.046875 41.984375 -51.796875 C 41.984375 -50.367188 41.484375 -49.171875 40.484375 -48.203125 C 39.492188 -47.242188 38.316406 -46.765625 36.953125 -46.765625 C 35.753906 -46.765625 34.644531 -47.21875 33.625 -48.125 C 33.050781 -48.75 32.40625 -49.300781 31.6875 -49.78125 C 30.976562 -50.269531 30 -50.515625 28.75 -50.515625 C 27.21875 -50.515625 26.023438 -50.03125 25.171875 -49.0625 C 24.316406 -48.09375 23.890625 -46.785156 23.890625 -45.140625 L 23.890625 -42.65625 L 29.1875 -42.65625 C 32.59375 -42.65625 34.296875 -40.953125 34.296875 -37.546875 C 34.296875 -34.242188 32.59375 -32.59375 29.1875 -32.59375 L 23.890625 -32.59375 Z M 23.890625 -6.140625 "/></g></g></g><g fill="#38b6ff" fill-opacity="1"><g transform="translate(324.921018, 99.885892)"><g><path d="M 7.765625 -43.515625 C 9.128906 -43.515625 10.351562 -43.203125 11.4375 -42.578125 C 12.519531 -41.953125 13.285156 -41.070312 13.734375 -39.9375 L 23.296875 -16.46875 L 32.9375 -39.9375 C 33.957031 -42.320312 35.921875 -43.515625 38.828125 -43.515625 C 40.648438 -43.515625 42.195312 -42.859375 43.46875 -41.546875 C 44.75 -40.242188 45.390625 -38.679688 45.390625 -36.859375 C 45.390625 -35.609375 45.164062 -34.53125 44.71875 -33.625 L 20.3125 14.59375 C 19.738281 15.675781 18.953125 16.53125 17.953125 17.15625 C 16.960938 17.78125 15.8125 18.09375 14.5 18.09375 C 12.738281 18.09375 11.1875 17.421875 9.84375 16.078125 C 8.507812 14.742188 7.84375 13.195312 7.84375 11.4375 C 7.84375 10.8125 7.957031 10.253906 8.1875 9.765625 C 8.414062 9.285156 8.644531 8.789062 8.875 8.28125 L 15.703125 -5.625 L 2.21875 -33.625 C 1.988281 -34.132812 1.773438 -34.660156 1.578125 -35.203125 C 1.378906 -35.742188 1.28125 -36.296875 1.28125 -36.859375 C 1.28125 -38.679688 1.921875 -40.242188 3.203125 -41.546875 C 4.484375 -42.859375 6.003906 -43.515625 7.765625 -43.515625 Z M 7.765625 -43.515625 "/></g></g></g></g></g><g clip-path="url(#44b4ce6083)"><path fill="#38b6ff" d="M 110.226562 99.617188 L 109.492188 99.617188 C 95.808594 80.445312 89.234375 65.019531 86.414062 57.027344 C 87.664062 53.4375 88.132812 51.429688 88.148438 51.367188 C 88.234375 50.992188 87.996094 50.617188 87.625 50.535156 C 87.25 50.445312 86.875 50.683594 86.789062 51.058594 C 86.777344 51.109375 86.464844 52.445312 85.675781 54.863281 C 84.886719 52.445312 84.574219 51.109375 84.5625 51.058594 C 84.476562 50.683594 84.105469 50.449219 83.730469 50.535156 C 83.355469 50.617188 83.117188 50.992188 83.203125 51.367188 C 83.21875 51.429688 83.691406 53.4375 84.9375 57.027344 C 82.113281 65.019531 75.542969 80.445312 61.859375 99.617188 L 61.128906 99.617188 C 60.742188 99.617188 60.429688 99.929688 60.429688 100.3125 C 60.429688 100.699219 60.742188 101.011719 61.128906 101.011719 L 77.75 101.011719 C 77.851562 101.011719 77.949219 100.984375 78.039062 100.945312 C 78.0625 100.933594 78.078125 100.914062 78.101562 100.898438 C 78.167969 100.863281 78.222656 100.820312 78.269531 100.765625 C 78.28125 100.753906 78.292969 100.75 78.300781 100.738281 C 82.589844 95.1875 84.714844 87.992188 85.675781 83.664062 C 86.636719 87.992188 88.761719 95.1875 93.050781 100.738281 C 93.058594 100.75 93.074219 100.753906 93.082031 100.765625 C 93.128906 100.820312 93.1875 100.863281 93.25 100.898438 C 93.273438 100.914062 93.292969 100.933594 93.316406 100.945312 C 93.402344 100.984375 93.5 101.011719 93.601562 101.011719 L 110.226562 101.011719 C 110.609375 101.011719 110.921875 100.699219 110.921875 100.3125 C 110.921875 99.929688 110.609375 99.617188 110.226562 99.617188 Z M 86.351562 79.660156 C 86.339844 79.613281 86.324219 79.570312 86.304688 79.527344 C 86.289062 79.488281 86.269531 79.449219 86.246094 79.414062 C 86.222656 79.375 86.191406 79.347656 86.160156 79.316406 C 86.128906 79.28125 86.097656 79.25 86.058594 79.226562 C 86.023438 79.203125 85.988281 79.1875 85.949219 79.171875 C 85.902344 79.148438 85.859375 79.132812 85.808594 79.125 C 85.792969 79.121094 85.777344 79.109375 85.761719 79.109375 C 85.730469 79.105469 85.707031 79.113281 85.675781 79.113281 C 85.644531 79.113281 85.617188 79.105469 85.589844 79.109375 C 85.570312 79.109375 85.558594 79.121094 85.539062 79.125 C 85.492188 79.132812 85.445312 79.152344 85.402344 79.171875 C 85.363281 79.1875 85.324219 79.203125 85.292969 79.226562 C 85.253906 79.253906 85.222656 79.285156 85.1875 79.316406 C 85.15625 79.347656 85.128906 79.375 85.105469 79.410156 C 85.082031 79.449219 85.0625 79.488281 85.046875 79.527344 C 85.027344 79.574219 85.011719 79.613281 85 79.660156 C 84.996094 79.679688 84.988281 79.691406 84.984375 79.710938 C 84.96875 79.828125 83.429688 91.597656 77.398438 99.617188 L 63.566406 99.617188 C 76.097656 81.894531 82.585938 67.402344 85.675781 59.070312 C 88.765625 67.402344 95.257812 81.894531 107.789062 99.617188 L 93.953125 99.617188 C 87.929688 91.605469 86.382812 79.832031 86.367188 79.710938 C 86.367188 79.691406 86.355469 79.679688 86.351562 79.660156 Z M 86.351562 79.660156 " fill-opacity="1" fill-rule="nonzero"/></g><g clip-path="url(#b7795c709d)"><g clip-path="url(#19cd230817)"><g transform="matrix(1, 0, 0, 1, 63, 86)"><g clip-path="url(#37cb78fc36)"><g clip-path="url(#caf257ffd7)"><g clip-path="url(#8545b1557d)"><path fill="#38b6ff" d="M 0.0898438 0.6875 L 15.433594 0.6875 L 15.433594 14.09375 L 0.0898438 14.09375 Z M 0.0898438 0.6875 " fill-opacity="1" fill-rule="nonzero"/></g></g></g></g></g></g><g clip-path="url(#2ef01dd7f7)"><g clip-path="url(#f9467402f0)"><g transform="matrix(1, 0, 0, 1, 92, 86)"><g clip-path="url(#c90c1658fb)"><g clip-path="url(#9700d54c58)"><g clip-path="url(#c166eb318d)"><path fill="#38b6ff" d="M 0.457031 0.6875 L 16.375 0.6875 L 16.375 14.09375 L 0.457031 14.09375 Z M 0.457031 0.6875 " fill-opacity="1" fill-rule="nonzero"/></g></g></g></g></g></g><g clip-path="url(#4aff0abb94)"><g clip-path="url(#219ffff172)"><g clip-path="url(#60e99e2449)"><g transform="matrix(1, 0, 0, 1, 86, 86)"><g clip-path="url(#0208a00240)"><g clip-path="url(#f19ac319e7)"><g clip-path="url(#c4599a8c5b)"><g clip-path="url(#d1a8ae186b)"><path fill="#38b6ff" d="M 13.894531 15.074219 L 0.0546875 14.558594 L 0.574219 0.667969 L 14.410156 1.183594 Z M 13.894531 15.074219 " fill-opacity="1" fill-rule="nonzero"/></g></g></g></g></g></g></g></g><g clip-path="url(#ed5410d77a)"><g clip-path="url(#124c8e77d7)"><g clip-path="url(#e3d1f09337)"><g transform="matrix(1, 0, 0, 1, 70, 86)"><g clip-path="url(#a709db6595)"><g clip-path="url(#f0e5ee4d79)"><g clip-path="url(#3e90990238)"><g clip-path="url(#e9f4a9f91f)"><path fill="#38b6ff" d="M 14.882812 13.539062 L 0.722656 13.875 L 0.417969 0.929688 L 14.574219 0.59375 Z M 14.882812 13.539062 " fill-opacity="1" fill-rule="nonzero"/></g></g></g></g></g></g></g></g><g clip-path="url(#af4f13211f)"><g clip-path="url(#2e622fc7ba)"><g transform="matrix(1, 0, 0, 1, 70, 74)"><g clip-path="url(#bbd6e512c9)"><g clip-path="url(#1472c14633)"><g clip-path="url(#6e3f1188e8)"><path fill="#38b6ff" d="M 0.9375 0.558594 L 14.34375 0.558594 L 14.34375 13.964844 L 0.9375 13.964844 Z M 0.9375 0.558594 " fill-opacity="1" fill-rule="nonzero"/></g></g></g></g></g></g><g clip-path="url(#55998c8819)"><g clip-path="url(#d7df46bb9b)"><g transform="matrix(1, 0, 0, 1, 86, 74)"><g clip-path="url(#1af5b0c705)"><g clip-path="url(#8e619c6e0e)"><g clip-path="url(#161ada6348)"><path fill="#38b6ff" d="M 0.703125 0.558594 L 14.109375 0.558594 L 14.109375 13.964844 L 0.703125 13.964844 Z M 0.703125 0.558594 " fill-opacity="1" fill-rule="nonzero"/></g></g></g></g></g></g><g clip-path="url(#b05daa5378)"><g clip-path="url(#b15131ebf8)"><g transform="matrix(1, 0, 0, 1, 82, 74)"><g clip-path="url(#43be2790ab)"><g clip-path="url(#d967dd4672)"><g clip-path="url(#c49e8f9249)"><path fill="#38b6ff" d="M 11.402344 13.953125 L 0.996094 13.953125 L 0.996094 0.535156 L 11.402344 0.535156 Z M 11.402344 13.953125 " fill-opacity="1" fill-rule="nonzero"/></g></g></g></g></g></g><g clip-path="url(#0708eb3cff)"><g clip-path="url(#f746a87caa)"><g transform="matrix(1, 0, 0, 1, 77, 74)"><g clip-path="url(#32e296c7e4)"><g clip-path="url(#cc3c265c79)"><g clip-path="url(#553edb25c2)"><path fill="#38b6ff" d="M 11.199219 13.953125 L 0.789062 13.953125 L 0.789062 0.535156 L 11.199219 0.535156 Z M 11.199219 13.953125 " fill-opacity="1" fill-rule="nonzero"/></g></g></g></g></g></g><g clip-path="url(#433a886fc1)"><g clip-path="url(#35f36175d4)"><g transform="matrix(1, 0, 0, 1, 78, 58)"><g clip-path="url(#e94aa108be)"><g clip-path="url(#db7dcc2d36)"><g clip-path="url(#1766760f42)"><path fill="#38b6ff" d="M 0.0195312 0.0820312 L 15.339844 0.0820312 L 15.339844 17.019531 L 0.0195312 17.019531 Z M 0.0195312 0.0820312 " fill-opacity="1" fill-rule="nonzero"/></g></g></g></g></g></g></svg>